HIERARCHY
ROOT Hips
{
	OFFSET -3.958830 18.904000 13.208200
	CHANNELS 6 Xposition Yposition Zposition Zrotation Yrotation Xrotation 
	JOINT LHipJoint
	{
		OFFSET 0.000000 0.000000 0.000000
		CHANNELS 3 Zrotation Yrotation Xrotation
		JOINT LeftUpLeg
		{
			OFFSET 1.800000 -1.400000 0.085000
			CHANNELS 3 Zrotation Yrotation Xrotation
			JOINT LeftLeg
			{
				OFFSET 2.215000 -6.000000 0.000000
				CHANNELS 3 Zrotation Yrotation Xrotation
				JOINT LeftFoot
				{
					OFFSET 2.500000 -6.900000 0.000000
					CHANNELS 3 Zrotation Yrotation Xrotation
					JOINT LeftToeBase
					{
						OFFSET 0.200000 -0.500000 1.950000
						CHANNELS 3 Zrotation Yrotation Xrotation
						End Site
						{
							OFFSET 0.000000 0.000000 0.000000
						}
					}
				}
			}
		}
	}
	JOINT RHipJoint
	{
		OFFSET 0.000000 0.000000 0.000000
		CHANNELS 3 Zrotation Yrotation Xrotation
		JOINT RightUpLeg
		{
			OFFSET -1.800000 -1.400000 0.085000
			CHANNELS 3 Zrotation Yrotation Xrotation
			JOINT RightLeg
			{
				OFFSET -2.215000 -6.000000 0.000000
				CHANNELS 3 Zrotation Yrotation Xrotation
				JOINT RightFoot
				{
					OFFSET -2.500000 -6.900000 0.000000
					CHANNELS 3 Zrotation Yrotation Xrotation
					JOINT RightToeBase
					{
						OFFSET -0.200000 -0.500000 1.950000
						CHANNELS 3 Zrotation Yrotation Xrotation
						End Site
						{
							OFFSET 0.000000 0.000000 0.000000
						}
					}
				}
			}
		}
	}
	JOINT LowerBack
	{
		OFFSET 0.000000 0.000000 0.000000
		CHANNELS 3 Zrotation Yrotation Xrotation
		JOINT Spine
		{
			OFFSET -0.087000 1.940000 -0.288900
			CHANNELS 3 Zrotation Yrotation Xrotation
			JOINT Spine1
			{
				OFFSET 0.000000 1.950000 0.060000
				CHANNELS 3 Zrotation Yrotation Xrotation
				JOINT Neck
				{
					OFFSET 0.000000 0.000000 0.000000
					CHANNELS 3 Zrotation Yrotation Xrotation
					JOINT Neck1
					{
						OFFSET 0.000000 1.600000 0.340000
						CHANNELS 3 Zrotation Yrotation Xrotation
						JOINT Head
						{
							OFFSET 0.000000 1.667000 -0.240000
							CHANNELS 3 Zrotation Yrotation Xrotation
							End Site
							{
								OFFSET 0.000000 0.000000 0.000000
							}
						}
					}
				}
				JOINT LeftShoulder
				{
					OFFSET 0.000000 0.000000 0.000000
					CHANNELS 3 Zrotation Yrotation Xrotation
					JOINT LeftArm
					{
						OFFSET 2.700000 1.550000 -0.730000
						CHANNELS 3 Zrotation Yrotation Xrotation
						JOINT LeftForeArm
						{
							OFFSET 5.450000 0.000000 0.000000
							CHANNELS 3 Zrotation Yrotation Xrotation
							JOINT LeftHand
							{
								OFFSET 3.450000 0.000000 0.000000
								CHANNELS 3 Zrotation Yrotation Xrotation
								JOINT LeftHandIndex1
								{
									OFFSET 0.750000 0.000000 0.000000
									CHANNELS 3 Zrotation Yrotation Xrotation
									End Site
									{
										OFFSET 0.000000 0.000000 0.000000
									}
								}
							}
						}
					}
				}
				JOINT RightShoulder
				{
					OFFSET 0.000000 0.000000 0.000000
					CHANNELS 3 Zrotation Yrotation Xrotation
					JOINT RightArm
					{
						OFFSET -2.700000 1.550000 -0.730000
						CHANNELS 3 Zrotation Yrotation Xrotation
						JOINT RightForeArm
						{
							OFFSET -5.450000 0.000000 0.000000
							CHANNELS 3 Zrotation Yrotation Xrotation
							JOINT RightHand
							{
								OFFSET -3.450000 0.000000 0.000000
								CHANNELS 3 Zrotation Yrotation Xrotation
								JOINT RightHandIndex1
								{
									OFFSET -0.750000 0.000000 0.000000
									CHANNELS 3 Zrotation Yrotation Xrotation
									End Site
									{
										OFFSET 0.000000 0.000000 0.000000
									}
								}
							}
						}
					}
				}
			}
		}
	}
}
MOTION
Frames: 12
Frame Time: 0.016667
10.262460 16.802190 -5.575330 -174.855323 -17.339413 -172.507119 -15.166714 12.768013 3.045720 15.461192 -3.183077 -21.872104 -9.618126 13.485212 37.618332 -0.110533 8.784660 1.540676 0.228000 -0.199420 0.225420 18.424307 -9.573241 3.340840 -8.835456 4.978218 -30.796950 15.549214 -5.098460 10.075461 0.243341 -3.053857 3.435215 0.146900 0.648320 0.228100 -4.054405 -2.414449 -7.664527 13.712274 -2.809776 12.322027 -5.923407 -1.404942 7.840761 -0.579520 -7.125426 -7.924050 -14.329188 10.443613 25.999282 -4.712250 8.585270 -0.088760 -9.413811 -0.166014 1.819623 -47.163716 -24.106046 3.628562 51.416455 -74.246840 -38.241816 -3.786137 2.076970 0.245130 0.564110 -0.471830 0.128810 10.063794 3.525855 3.805478 50.310743 11.000321 -8.972254 -27.690712 80.967766 -22.938872 1.222673 -1.369999 -0.433970 0.246980 0.148220 -0.280890 
10.251000 16.776980 -5.551150 -175.212846 -18.041876 -172.362675 -15.214964 12.472348 3.471578 16.350313 -3.943094 -24.782997 -12.021765 15.398899 40.209163 0.134375 9.613235 1.259991 0.225110 -0.180130 0.203300 18.446337 -9.324486 3.272430 -9.563175 5.151519 -33.148025 15.216860 -5.911905 13.836007 0.233098 -3.249327 3.353415 0.131120 0.653650 0.244180 -3.997120 -2.563353 -7.851266 13.674868 -3.361911 13.149975 -5.798497 -1.722258 7.745076 -0.841512 -7.549147 -8.096946 -15.602325 11.092618 26.540528 -4.658920 8.843620 1.139560 -8.929999 -0.249555 1.958062 -47.860640 -24.809369 4.401381 33.382127 -76.160360 -27.179422 -3.897511 2.683491 0.195680 0.575690 -0.469580 0.141090 10.038296 3.745734 3.786562 49.311986 10.527944 -8.334277 -16.165883 81.347580 -14.788556 1.353791 -1.686331 -0.387890 0.214120 0.132720 -0.246020 
10.235150 16.760260 -5.509550 -175.971945 -18.665051 -172.823039 -15.251273 12.245271 3.839952 17.023103 -4.657998 -26.496019 -14.725235 17.156181 41.761780 0.404607 10.162740 1.057945 0.329840 -0.023230 0.266910 18.456068 -9.115906 3.228889 -10.819970 4.997965 -34.828096 15.026197 -6.638577 17.005736 0.129553 -3.451077 3.237236 0.159700 0.518670 0.222120 -3.945015 -2.745554 -8.067116 13.253399 -4.217796 15.095378 -6.111021 -2.218299 8.183331 -0.913816 -8.264231 -8.925749 -17.902590 12.042679 27.805327 -4.136900 8.838500 -0.129580 -8.748553 -2.023998 2.580745 -47.698487 -24.606215 3.448476 21.015522 -76.910159 -19.369326 -3.806589 2.997852 0.202410 0.460300 -0.363040 0.170650 10.014374 5.821758 4.364499 49.140735 10.285710 -9.130985 -9.781346 81.068179 -10.580263 1.488079 -1.812776 -0.290240 0.169370 0.027830 -0.213900 
10.218470 16.757150 -5.449360 -176.323861 -19.292919 -173.617093 -15.274479 12.061995 4.139702 18.003460 -5.179902 -27.733017 -16.888696 18.591139 42.992656 0.587126 10.605212 0.890257 0.450480 0.129340 0.358130 18.473005 -8.952696 3.204876 -11.412193 5.011474 -36.474491 14.063166 -7.299739 20.578446 -0.005309 -3.656096 3.118389 0.196800 0.367190 0.208450 -3.926316 -2.873540 -8.267021 13.433176 -5.217145 17.642779 -6.711839 -2.689460 8.696204 -0.560246 -8.865031 -9.854955 -20.293292 13.029449 29.418499 -4.682050 9.239160 -2.666490 -8.682674 -4.083523 3.205279 -47.764032 -24.400438 2.110689 11.894548 -77.622618 -13.792531 -3.677457 3.152241 0.276830 0.331280 -0.227720 0.206320 9.282172 8.007535 5.011808 49.733553 10.292189 -10.255331 -3.994063 79.553942 -6.650617 1.587486 -1.883590 -0.222700 0.144810 -0.076900 -0.211490 
10.202860 16.750640 -5.388670 -176.257732 -19.627046 -173.937782 -15.295183 11.764088 4.453536 19.986054 -5.339387 -29.111258 -19.742531 20.305953 43.341650 0.698466 11.104910 0.688793 0.524340 0.203670 0.444930 18.520853 -8.711560 3.233112 -11.703873 5.362178 -38.549827 13.144184 -7.886017 23.880148 -0.103729 -3.895951 2.991611 0.218560 0.250150 0.200670 -3.936419 -2.888861 -8.470264 14.229709 -5.936323 19.742814 -7.348588 -2.819771 8.924779 -0.219265 -9.329311 -10.439463 -22.409744 13.680137 30.592402 -5.734000 9.440880 -5.034040 -8.123716 -4.988643 3.436743 -48.805693 -25.033936 1.803261 3.664404 -77.469887 -8.274395 -3.611118 3.236251 0.352240 0.244360 -0.142420 0.190930 8.022188 8.966029 5.367463 50.709000 10.049892 -10.846865 2.860823 77.696863 -1.847265 1.655473 -1.940522 -0.194500 0.128680 -0.119560 -0.241540 
10.184910 16.724460 -5.335550 -176.662754 -20.290567 -173.457853 -15.340043 11.481860 4.746276 21.513197 -5.663787 -30.759597 -22.150274 21.973564 44.114847 0.812429 11.671190 0.516956 0.503670 0.170790 0.440110 18.553643 -8.409806 3.289032 -12.622997 5.434996 -40.867159 12.504231 -8.524961 26.660556 -0.143998 -4.233713 2.872546 0.207040 0.247450 0.181540 -3.885461 -3.031882 -8.659828 14.369602 -6.420651 21.042163 -7.263094 -2.948046 8.602125 -0.268032 -9.698580 -10.850395 -24.235074 14.248476 30.884500 -6.264370 9.411410 -4.857310 -7.805513 -5.619518 3.575662 -49.696758 -25.527781 1.864178 -4.300561 -75.830173 -2.582583 -3.633247 3.270060 0.379280 0.237610 -0.147920 0.177470 7.840340 9.587050 5.652961 50.774454 8.997186 -11.358499 8.163919 76.704599 1.790999 1.680362 -1.961301 -0.220400 0.147940 -0.101030 -0.258520 
10.163260 16.692100 -5.279800 -177.205787 -21.059725 -173.255822 -15.365168 11.250558 4.969591 22.827481 -6.033665 -31.717486 -24.493803 23.264257 44.297754 0.841790 12.142149 0.332275 0.465210 0.078760 0.480040 18.587875 -8.197261 3.309742 -13.519216 5.280165 -42.486026 11.761614 -9.153354 29.149785 -0.199964 -4.565072 2.689443 0.166640 0.227920 0.232430 -3.873618 -3.122532 -8.800890 14.616268 -7.044648 22.567347 -7.772604 -3.233890 8.339067 -0.210113 -9.910767 -11.019130 -26.084970 15.351068 31.582693 -7.493130 9.839850 -6.160320 -8.218250 -6.619758 3.271013 -48.516823 -26.222622 1.537647 -8.957203 -72.815151 0.695930 -3.703035 3.238777 0.451200 0.228630 -0.121650 0.098720 8.096519 10.166721 5.852283 50.720268 8.381876 -11.938777 10.487901 75.160355 3.404567 1.690623 -1.898048 -0.239350 0.141950 -0.023160 -0.306210 
10.138110 16.662890 -5.211460 -177.963127 -21.836851 -172.827841 -15.395392 11.143547 5.109225 23.385086 -6.517121 -32.439165 -25.777077 23.914416 44.602077 0.827507 12.397015 0.212493 0.458210 0.039470 0.528010 18.590274 -8.050951 3.315195 -14.535546 4.872136 -43.415321 11.454969 -9.385153 29.735167 -0.219402 -4.668198 2.605595 0.156630 0.182770 0.254400 -3.819151 -3.280830 -8.889849 14.368341 -7.518825 23.948493 -7.669787 -3.512206 8.356251 -0.271663 -10.082218 -11.246294 -27.839997 16.193343 31.975242 -9.156420 10.325630 -7.491720 -8.006275 -7.591443 3.244369 -48.026605 -27.025526 1.078504 -7.715808 -70.171822 -0.354448 -3.716304 3.178062 0.511650 0.210920 -0.095850 0.040890 8.015879 10.840533 5.942132 50.343999 8.300860 -12.475894 10.263294 73.486344 3.239290 1.682873 -1.839971 -0.255720 0.130640 0.015870 -0.354670 
10.103500 16.643120 -5.128160 -178.668912 -22.534781 -172.228110 -15.393402 11.041934 5.195971 23.661195 -6.927381 -33.039755 -26.385278 24.296571 45.116282 0.861510 12.517358 0.161605 0.515520 0.104210 0.602680 18.613308 -8.009168 3.293279 -15.095744 4.484423 -44.022390 10.703535 -9.164103 29.530134 -0.237723 -4.561171 2.614448 0.184630 0.110970 0.251170 -3.852658 -3.252419 -8.926201 14.739790 -7.907407 25.115546 -7.794669 -3.613070 8.543847 -0.468233 -10.285787 -11.472141 -29.771588 16.753852 32.232036 -10.555050 10.501910 -8.938230 -7.658041 -8.642768 3.212190 -47.062116 -28.255275 0.800446 -4.990813 -67.697236 -2.092281 -3.666166 3.127492 0.536110 0.169440 -0.042400 0.033480 8.015134 11.619072 6.062431 49.555119 8.047394 -13.160823 7.769190 71.923190 1.619392 1.684640 -1.800100 -0.232660 0.126030 -0.023690 -0.371340 
10.078350 16.626200 -5.038520 -179.178413 -22.659979 -171.389552 -15.371139 10.919719 5.239533 23.994806 -7.031723 -33.412800 -27.014549 24.453369 44.875888 0.820407 12.539845 0.114457 0.565290 0.155940 0.663390 18.656831 -7.987285 3.307965 -15.112646 4.454941 -44.945329 9.467504 -8.590912 28.979979 -0.238016 -4.322843 2.650941 0.218210 0.050900 0.268080 -3.939830 -3.095518 -8.937789 15.119788 -8.230913 25.891092 -8.239631 -3.696198 8.772465 -0.807496 -10.472442 -11.650214 -31.285686 17.636593 32.002746 -11.638720 10.764540 -10.878110 -7.079264 -9.850261 3.237865 -45.107416 -28.794289 0.183135 -2.193189 -65.807053 -3.724427 -3.635616 3.088786 0.575140 0.136600 0.006060 0.012870 8.069499 12.548730 6.085150 48.893487 8.684928 -13.434342 4.158464 69.753209 -0.497935 1.667228 -1.733174 -0.219250 0.118340 -0.032540 -0.394700 
10.035710 16.618010 -4.942580 -179.735196 -22.533834 -170.426521 -15.312174 10.814711 5.174074 23.611045 -7.139961 -33.374692 -26.853524 24.166090 44.641276 0.774224 12.434648 0.132854 0.620050 0.212560 0.725770 18.724086 -8.038888 3.366373 -15.221756 4.394607 -46.095480 8.086638 -7.949922 28.277915 -0.230228 -4.073154 2.716003 0.253730 0.008980 0.268660 -4.115490 -2.780043 -8.906087 15.934898 -8.649008 26.341216 -9.310737 -3.837463 8.926765 -1.101835 -10.621123 -11.765467 -32.688672 18.629608 31.863736 -12.473740 11.203800 -11.900330 -6.827272 -11.070756 3.220538 -42.027264 -28.794480 -0.570084 0.417368 -64.443456 -4.963369 -3.607097 3.052855 0.592580 0.116380 0.037900 0.013670 8.348215 13.381876 6.026555 47.988706 9.599811 -13.343448 -0.271237 67.055099 -2.793229 1.651154 -1.665760 -0.209980 0.120610 -0.063950 -0.411360 
9.991720 16.610580 -4.841800 179.724583 -22.370975 -169.319172 -15.257804 10.770367 5.061888 22.727155 -7.267755 -33.446359 -25.740868 23.463970 44.699240 0.733165 12.213359 0.211951 0.688770 0.306830 0.794240 18.777122 -8.111937 3.434343 -15.350820 4.310163 -47.067750 6.791009 -7.138391 26.730338 -0.216685 -3.717925 2.835607 0.305780 -0.029620 0.252650 -4.266772 -2.501221 -8.851304 16.580886 -8.967531 26.689482 -9.822668 -3.983280 8.907427 -1.605170 -10.940478 -11.632526 -33.932019 19.110052 30.982498 -13.849180 11.578190 -12.837280 -6.357226 -11.638468 3.098615 -39.126898 -28.848085 -0.801374 1.507379 -63.002847 -5.082096 -3.573242 3.030888 0.579770 0.102630 0.074140 0.042180 8.816729 13.883827 5.729855 45.960633 10.807911 -12.703821 -3.518577 64.666700 -4.130454 1.651411 -1.629529 -0.193540 0.137310 -0.132370 -0.410840 
